<svg width="24" height="26" viewBox="0 0 24 26" fill="none" xmlns="http://www.w3.org/2000/svg">
<path d="M20.75 2.75H15.525C15 1.3 13.625 0.25 12 0.25C10.375 0.25 9 1.3 8.475 2.75H3.25C1.875 2.75 0.75 3.875 0.75 5.25V22.75C0.75 24.125 1.875 25.25 3.25 25.25H20.75C22.125 25.25 23.25 24.125 23.25 22.75V5.25C23.25 3.875 22.125 2.75 20.75 2.75ZM12 2.75C12.6875 2.75 13.25 3.3125 13.25 4C13.25 4.6875 12.6875 5.25 12 5.25C11.3125 5.25 10.75 4.6875 10.75 4C10.75 3.3125 11.3125 2.75 12 2.75ZM9.5 20.25L4.5 15.25L6.2625 13.4875L9.5 16.7125L17.7375 8.475L19.5 10.25L9.5 20.25Z" fill="#BBD3C1"/>
</svg>
