<svg width="17" height="26" viewBox="0 0 17 26" fill="none" xmlns="http://www.w3.org/2000/svg">
<path d="M13.586 4.23711V3.59278C13.586 1.91753 12.2656 0.5 10.4171 0.5H6.45587C4.60731 0.5 3.15488 1.91753 3.15488 3.59278V4.10825C1.43836 4.75258 0.25 6.29897 0.25 8.10309V21.3763C0.25 23.6959 2.09856 25.5 4.47527 25.5H12.2656C14.6423 25.5 16.4909 23.6959 16.4909 21.3763V8.10309C16.6229 6.29897 15.3025 4.75258 13.586 4.23711ZM5.13547 3.59278C5.13547 2.94845 5.66363 2.43299 6.32383 2.43299H10.4171C11.0773 2.43299 11.6054 2.94845 11.6054 3.59278V3.97938H5.13547V3.59278ZM14.6423 21.3763C14.6423 22.6649 13.586 23.567 12.3977 23.567H4.47527C3.15488 23.567 2.2306 22.5361 2.2306 21.3763V20.6031H14.6423V21.3763ZM9.49279 16.7371L8.30443 17.8969C7.51219 18.6701 6.05975 18.6701 5.26751 17.8969C4.87139 17.5103 4.60731 16.9948 4.60731 16.4794C4.60731 15.9639 4.87139 15.3196 5.26751 14.933L6.45587 13.7732L9.49279 16.7371ZM7.38015 12.8711L8.56851 11.7113C9.36075 10.9381 10.8132 10.9381 11.6054 11.7113C12.0015 12.0979 12.2656 12.7423 12.2656 13.1289C12.2656 13.6443 12.0015 14.2887 11.6054 14.6753L10.4171 15.8351L7.38015 12.8711ZM14.6423 9.13402H2.2306V8.10309C2.2306 7.3299 2.62672 6.68557 3.15488 6.29897C3.41896 6.1701 3.81507 6.04124 4.21119 5.91237C4.34323 5.91237 4.47527 5.91237 4.47527 5.91237H12.2656C12.3977 5.91237 12.5297 5.91237 12.5297 5.91237C12.9258 5.91237 13.1899 6.04124 13.586 6.29897C14.1142 6.68557 14.5103 7.3299 14.5103 8.10309V9.13402H14.6423Z" fill="#BBD3C1"/>
</svg>
